<svg width="304" height="119" viewBox="0 0 304 119" fill="none" xmlns="http://www.w3.org/2000/svg">
<path d="M108.85 55.9985C108.85 85.2566 85.1351 108.997 55.925 108.997C26.7149 108.997 2.99992 85.2566 2.99992 55.9985C2.99992 26.7404 26.7149 2.99992 55.925 2.99992H105.85C107.507 2.99992 108.85 4.34303 108.85 5.99984V55.9985Z" fill="url(#paint0_linear_201_29)" stroke="#34D399" stroke-width="5.99985"/>
<path d="M134.288 88.576C130.64 88.576 127.856 88.024 125.936 86.92C124.016 85.816 122.648 83.944 121.832 81.304C121.064 78.616 120.68 74.752 120.68 69.712C120.68 64.624 121.064 60.736 121.832 58.048C122.6 55.36 123.92 53.464 125.792 52.36C127.712 51.256 130.472 50.704 134.072 50.704C137.24 50.704 139.784 51.088 141.704 51.856C143.672 52.624 145.112 53.968 146.024 55.888H146.456V34.504H152.288V88H147.032L146.816 82.888H146.384C145.376 85.096 143.84 86.608 141.776 87.424C139.712 88.192 137.216 88.576 134.288 88.576ZM136.52 82.96C139.016 82.96 140.984 82.648 142.424 82.024C143.864 81.352 144.848 80.32 145.376 78.928C145.856 77.824 146.144 76.576 146.24 75.184C146.384 73.744 146.456 71.776 146.456 69.28C146.456 67.216 146.384 65.512 146.24 64.168C146.096 62.824 145.832 61.672 145.448 60.712C144.872 59.224 143.84 58.144 142.352 57.472C140.912 56.752 138.92 56.392 136.376 56.392C133.352 56.392 131.168 56.704 129.824 57.328C128.528 57.904 127.64 59.08 127.16 60.856C126.728 62.632 126.512 65.56 126.512 69.64C126.512 73.816 126.728 76.792 127.16 78.568C127.64 80.344 128.528 81.52 129.824 82.096C131.168 82.672 133.4 82.96 136.52 82.96ZM194.179 71.728H169.051C169.051 75.232 169.291 77.728 169.771 79.216C170.251 80.704 171.283 81.76 172.867 82.384C174.499 82.96 177.211 83.248 181.003 83.248C184.699 83.248 188.611 82.984 192.739 82.456V87.568C191.203 87.856 189.211 88.096 186.763 88.288C184.315 88.48 181.987 88.576 179.779 88.576C174.835 88.576 171.187 88 168.835 86.848C166.531 85.696 165.019 83.848 164.299 81.304C163.579 78.76 163.219 74.896 163.219 69.712C163.219 64.624 163.531 60.808 164.155 58.264C164.827 55.72 166.291 53.824 168.547 52.576C170.851 51.328 174.475 50.704 179.419 50.704C184.027 50.704 187.363 51.328 189.427 52.576C191.491 53.776 192.787 55.624 193.315 58.12C193.891 60.568 194.179 64.408 194.179 69.64V71.728ZM179.275 56.032C176.155 56.032 173.899 56.32 172.507 56.896C171.163 57.424 170.251 58.456 169.771 59.992C169.339 61.48 169.099 63.904 169.051 67.264H188.563V66.688C188.563 63.52 188.275 61.192 187.699 59.704C187.171 58.216 186.283 57.232 185.035 56.752C183.787 56.272 181.867 56.032 179.275 56.032ZM250.308 67.336C250.308 63.88 250.116 61.432 249.732 59.992C249.396 58.552 248.7 57.592 247.644 57.112C246.588 56.632 244.812 56.392 242.316 56.392C239.628 56.392 237.66 56.848 236.412 57.76C235.164 58.672 234.372 59.968 234.036 61.648C233.7 63.328 233.532 65.8 233.532 69.064V88H227.7V67.336C227.7 63.88 227.508 61.432 227.124 59.992C226.788 58.552 226.092 57.592 225.036 57.112C223.98 56.632 222.204 56.392 219.708 56.392C217.02 56.392 215.052 56.872 213.804 57.832C212.556 58.744 211.764 60.064 211.428 61.792C211.092 63.472 210.924 65.896 210.924 69.064V88H205.092V51.28H210.276L210.564 56.464H210.996C211.716 54.592 212.94 53.176 214.668 52.216C216.444 51.208 218.94 50.704 222.156 50.704C225.324 50.704 227.724 51.16 229.356 52.072C230.988 52.984 232.116 54.448 232.74 56.464H233.244C234.78 52.624 238.596 50.704 244.692 50.704C247.908 50.704 250.332 51.208 251.964 52.216C253.596 53.224 254.7 54.736 255.276 56.752C255.852 58.72 256.14 61.48 256.14 65.032V88H250.308V67.336ZM283.199 88.576C278.063 88.576 274.391 88.072 272.183 87.064C269.975 86.008 268.559 84.256 267.935 81.808C267.359 79.312 267.071 75.256 267.071 69.64C267.071 64.024 267.359 59.992 267.935 57.544C268.559 55.048 269.975 53.296 272.183 52.288C274.391 51.232 278.063 50.704 283.199 50.704C288.287 50.704 291.935 51.232 294.143 52.288C296.351 53.296 297.743 55.048 298.319 57.544C298.943 59.992 299.255 64.024 299.255 69.64C299.255 75.256 298.943 79.312 298.319 81.808C297.743 84.256 296.351 86.008 294.143 87.064C291.935 88.072 288.287 88.576 283.199 88.576ZM283.199 83.248C286.703 83.248 289.127 82.936 290.471 82.312C291.815 81.688 292.631 80.56 292.919 78.928C293.255 77.248 293.423 74.152 293.423 69.64C293.423 65.128 293.255 62.056 292.919 60.424C292.631 58.744 291.815 57.592 290.471 56.968C289.127 56.344 286.703 56.032 283.199 56.032C279.695 56.032 277.247 56.344 275.855 56.968C274.511 57.592 273.671 58.744 273.335 60.424C273.047 62.056 272.903 65.128 272.903 69.64C272.903 74.152 273.047 77.248 273.335 78.928C273.671 80.56 274.511 81.688 275.855 82.312C277.247 82.936 279.695 83.248 283.199 83.248Z" fill="#34D399"/>
<path d="M56.8424 85.5776C36.0797 85.5776 30.5323 63.9339 33.0399 49.7529C33.149 49.1357 33.958 48.9579 34.3106 49.4762C35.4023 51.0807 36.3737 53.3983 37.9833 53.1971C40.4025 52.8946 42.0785 31.5475 56.4166 25.541C56.8716 25.3504 57.3477 25.712 57.2977 26.2027C56.5887 33.1589 60.7653 43.1177 68.1647 43.1177C72.4064 43.1177 75.3086 39.7324 76.7588 36.3327C77.1993 35.2999 78.7082 35.4301 78.9608 36.5241C81.5486 47.7315 88.4662 85.5776 56.8424 85.5776Z" fill="#20B880"/>
<path d="M49.5638 64.7072C50.0521 64.2969 50.7933 64.5785 50.9042 65.2065C51.1635 66.6761 52.0165 69.2016 54.8143 69.2016C58.1799 69.2016 60.4639 59.9406 61.0629 57.217C61.1615 56.7688 61.5982 56.4645 62.0478 56.5559C70.4586 58.266 74.5481 85.5775 56.055 85.5775C42.5922 85.5775 45.6422 68.0016 49.5638 64.7072ZM72.5466 35.13C72.843 32.8116 68.6107 39.1528 68.6107 39.1528C68.6107 39.1528 71.8374 40.6769 72.5466 35.13ZM29.9018 69.7065C29.991 68.7195 28.7213 66.0769 28.4965 67.1232C27.9584 69.6265 29.8126 70.6935 29.9018 69.7065Z" fill="#98E4C9"/>
<path d="M63.7658 66.8936C63.4504 65.5783 62.3194 68.6335 62.4615 69.878C62.6036 71.1224 64.5202 70.0407 63.7658 66.8936Z" fill="#2B9B72"/>
<defs>
<linearGradient id="paint0_linear_201_29" x1="55.925" y1="0" x2="55.925" y2="111.997" gradientUnits="userSpaceOnUse">
<stop stop-color="#34D399"/>
<stop offset="0.443519" stop-color="#68E3B6"/>
<stop offset="1" stop-color="#A8F8DB"/>
</linearGradient>
</defs>
</svg>
