<svg width="180" height="180" viewBox="0 0 180 180" fill="none" xmlns="http://www.w3.org/2000/svg">
<path d="M165 89.5C165 131.175 131.175 165 89.5 165C47.8248 165 13.9999 131.175 13.9999 89.5C13.9999 47.8248 47.8248 13.9999 89.5 13.9999H162C163.657 13.9999 165 15.343 165 16.9998V89.5Z" fill="url(#paint0_linear_601_8)" stroke="#FF8F1F" stroke-width="5.99985"/>
<path d="M88.8751 125.013C59.8733 125.013 52.1245 94.7807 55.6271 74.9723C55.7796 74.1101 56.9097 73.8618 57.4021 74.5857C58.9269 76.827 60.2839 80.0642 62.5322 79.7832C65.9114 79.3607 68.2525 49.5425 88.2803 41.1524C88.9159 40.8862 89.5809 41.3913 89.5111 42.0768C88.5207 51.7934 94.3547 65.7041 104.69 65.7041C110.615 65.7041 114.669 60.9754 116.695 56.2265C117.31 54.784 119.418 54.9658 119.771 56.494C123.385 72.1487 133.048 125.013 88.8751 125.013V125.013Z" fill="#F76514"/>
<path d="M78.7081 95.8609C79.3901 95.2878 80.4255 95.6811 80.5804 96.5583C80.9427 98.611 82.1341 102.139 86.0422 102.139C90.7433 102.139 93.9337 89.2028 94.7704 85.3983C94.9081 84.7723 95.518 84.3473 96.1461 84.475C107.895 86.8637 113.607 125.013 87.7752 125.013C68.97 125.013 73.2303 100.463 78.7081 95.8609ZM110.811 54.5467C111.225 51.3083 105.313 60.1658 105.313 60.1658C105.313 60.1658 109.82 62.2947 110.811 54.5467ZM51.2437 102.844C51.3683 101.465 49.5948 97.7742 49.2807 99.2356C48.5291 102.732 51.1191 104.223 51.2437 102.844Z" fill="#FF8F1F"/>
<path d="M98.5459 98.9149C98.1054 97.0776 96.5255 101.345 96.724 103.084C96.9226 104.822 99.5997 103.311 98.5459 98.9149Z" fill="#FF8F1F"/>
<defs>
<linearGradient id="paint0_linear_601_8" x1="89.5" y1="11" x2="89.5" y2="168" gradientUnits="userSpaceOnUse">
<stop stop-color="#FF8F1F"/>
<stop offset="1" stop-color="#FFD469"/>
</linearGradient>
</defs>
</svg>
