<svg width="305" height="113" viewBox="0 0 305 113" fill="none" xmlns="http://www.w3.org/2000/svg">
<path d="M108.85 56.9985C108.85 86.2566 85.1351 109.997 55.925 109.997C26.7149 109.997 2.99992 86.2566 2.99992 56.9985C2.99992 27.7404 26.7149 3.99992 55.925 3.99992H105.85C107.507 3.99992 108.85 5.34303 108.85 6.99984V56.9985Z" fill="url(#paint0_linear_105:34)" stroke="#FF8F1F" stroke-width="5.99985"/>
<path d="M138.432 82.576C136.464 82.576 134.232 82.48 131.736 82.288C129.24 82.096 127.032 81.88 125.112 81.64V76.456C129.864 76.984 134.208 77.248 138.144 77.248C140.592 77.248 142.392 77.08 143.544 76.744C144.696 76.408 145.44 75.88 145.776 75.16C146.16 74.392 146.352 73.264 146.352 71.776C146.352 70.288 146.208 69.232 145.92 68.608C145.68 67.936 145.272 67.48 144.696 67.24C144.12 67 143.112 66.808 141.672 66.664L132.096 65.584C129.888 65.344 128.184 64.84 126.984 64.072C125.832 63.304 125.04 62.248 124.608 60.904C124.176 59.56 123.96 57.76 123.96 55.504C123.96 52.384 124.512 50.056 125.616 48.52C126.768 46.936 128.328 45.904 130.296 45.424C132.312 44.944 135 44.704 138.36 44.704C140.232 44.704 142.248 44.8 144.408 44.992C146.568 45.184 148.392 45.424 149.88 45.712V50.896C146.136 50.32 142.272 50.032 138.288 50.032C136.08 50.032 134.4 50.152 133.248 50.392C132.096 50.584 131.208 51.064 130.584 51.832C129.96 52.552 129.648 53.704 129.648 55.288C129.648 56.68 129.768 57.688 130.008 58.312C130.248 58.936 130.656 59.368 131.232 59.608C131.808 59.848 132.768 60.04 134.112 60.184L144.048 61.336C146.16 61.576 147.744 61.984 148.8 62.56C149.904 63.088 150.696 64.048 151.176 65.44C151.704 66.832 151.968 68.896 151.968 71.632C151.968 74.656 151.464 76.96 150.456 78.544C149.496 80.128 148.056 81.208 146.136 81.784C144.264 82.312 141.696 82.576 138.432 82.576ZM164.866 82V50.608H157.45V45.28H164.866V34.624H170.698V45.28H179.482V50.608H170.698V82H164.866ZM216.742 65.728H191.614C191.614 69.232 191.854 71.728 192.334 73.216C192.814 74.704 193.846 75.76 195.43 76.384C197.062 76.96 199.774 77.248 203.566 77.248C207.262 77.248 211.174 76.984 215.302 76.456V81.568C213.766 81.856 211.774 82.096 209.326 82.288C206.878 82.48 204.55 82.576 202.342 82.576C197.398 82.576 193.75 82 191.398 80.848C189.094 79.696 187.582 77.848 186.862 75.304C186.142 72.76 185.782 68.896 185.782 63.712C185.782 58.624 186.094 54.808 186.718 52.264C187.39 49.72 188.854 47.824 191.11 46.576C193.414 45.328 197.038 44.704 201.982 44.704C206.59 44.704 209.926 45.328 211.99 46.576C214.054 47.776 215.35 49.624 215.878 52.12C216.454 54.568 216.742 58.408 216.742 63.64V65.728ZM201.838 50.032C198.718 50.032 196.462 50.32 195.07 50.896C193.726 51.424 192.814 52.456 192.334 53.992C191.902 55.48 191.662 57.904 191.614 61.264H211.126V60.688C211.126 57.52 210.838 55.192 210.262 53.704C209.734 52.216 208.846 51.232 207.598 50.752C206.35 50.272 204.43 50.032 201.838 50.032ZM237.447 82.576C233.223 82.576 230.151 81.808 228.231 80.272C226.311 78.688 225.351 75.904 225.351 71.92C225.351 69.088 225.687 66.88 226.359 65.296C227.031 63.712 228.159 62.56 229.743 61.84C231.375 61.12 233.655 60.76 236.583 60.76C237.975 60.76 242.559 60.88 250.335 61.12V58.96C250.335 56.08 250.047 54.04 249.471 52.84C248.943 51.64 247.935 50.872 246.447 50.536C245.007 50.2 242.535 50.032 239.031 50.032C237.495 50.032 235.551 50.128 233.199 50.32C230.895 50.464 229.095 50.632 227.799 50.824V45.712C231.591 45.04 236.031 44.704 241.119 44.704C245.439 44.704 248.655 45.16 250.767 46.072C252.927 46.936 254.367 48.376 255.087 50.392C255.807 52.36 256.167 55.24 256.167 59.032V82H250.911L250.623 76.888H250.191C249.183 79.192 247.551 80.728 245.295 81.496C243.087 82.216 240.471 82.576 237.447 82.576ZM239.679 77.32C242.079 77.32 244.023 77.104 245.511 76.672C247.047 76.24 248.151 75.4 248.823 74.152C249.831 72.424 250.335 70.024 250.335 66.952V65.296H238.095C236.079 65.296 234.591 65.44 233.631 65.728C232.719 66.016 232.071 66.592 231.687 67.456C231.303 68.272 231.111 69.568 231.111 71.344C231.111 73.072 231.327 74.344 231.759 75.16C232.191 75.976 232.983 76.552 234.135 76.888C235.335 77.176 237.183 77.32 239.679 77.32ZM280.741 82.576C277.093 82.576 274.309 82.024 272.389 80.92C270.469 79.816 269.101 77.944 268.285 75.304C267.517 72.616 267.133 68.752 267.133 63.712C267.133 58.624 267.517 54.736 268.285 52.048C269.053 49.36 270.373 47.464 272.245 46.36C274.165 45.256 276.925 44.704 280.525 44.704C283.693 44.704 286.237 45.088 288.157 45.856C290.125 46.624 291.565 47.968 292.477 49.888H292.909V28.504H298.741V82H293.485L293.269 76.888H292.837C291.829 79.096 290.293 80.608 288.229 81.424C286.165 82.192 283.669 82.576 280.741 82.576ZM282.973 76.96C285.469 76.96 287.437 76.648 288.877 76.024C290.317 75.352 291.301 74.32 291.829 72.928C292.309 71.824 292.597 70.576 292.693 69.184C292.837 67.744 292.909 65.776 292.909 63.28C292.909 61.216 292.837 59.512 292.693 58.168C292.549 56.824 292.285 55.672 291.901 54.712C291.325 53.224 290.293 52.144 288.805 51.472C287.365 50.752 285.373 50.392 282.829 50.392C279.805 50.392 277.621 50.704 276.277 51.328C274.981 51.904 274.093 53.08 273.613 54.856C273.181 56.632 272.965 59.56 272.965 63.64C272.965 67.816 273.181 70.792 273.613 72.568C274.093 74.344 274.981 75.52 276.277 76.096C277.621 76.672 279.853 76.96 282.973 76.96Z" fill="#FF8F1F"/>
<path d="M56.8424 86.5776C36.0797 86.5776 30.5323 64.9339 33.0399 50.7529C33.149 50.1357 33.958 49.9579 34.3106 50.4761C35.4023 52.0807 36.3737 54.3982 37.9833 54.1971C40.4025 53.8946 42.0785 32.5475 56.4166 26.5409C56.8716 26.3503 57.3477 26.712 57.2977 27.2027C56.5887 34.1589 60.7653 44.1177 68.1647 44.1177C72.4064 44.1177 75.3086 40.7324 76.7588 37.3326C77.1993 36.2999 78.7082 36.4301 78.9608 37.5241C81.5486 48.7314 88.4662 86.5776 56.8424 86.5776Z" fill="#F76514"/>
<path d="M49.5638 65.7072C50.0521 65.2969 50.7933 65.5785 50.9042 66.2065C51.1635 67.6761 52.0165 70.2016 54.8143 70.2016C58.1799 70.2016 60.4639 60.9406 61.0629 58.217C61.1615 57.7688 61.5982 57.4645 62.0478 57.5559C70.4586 59.266 74.5481 86.5775 56.055 86.5775C42.5922 86.5775 45.6422 69.0016 49.5638 65.7072ZM72.5466 36.13C72.843 33.8116 68.6107 40.1528 68.6107 40.1528C68.6107 40.1528 71.8374 41.6769 72.5466 36.13ZM29.9018 70.7065C29.991 69.7195 28.7213 67.0769 28.4965 68.1232C27.9584 70.6265 29.8126 71.6935 29.9018 70.7065Z" fill="#FF8F1F"/>
<path d="M63.7658 67.8936C63.4504 66.5783 62.3194 69.6335 62.4615 70.878C62.6036 72.1224 64.5202 71.0407 63.7658 67.8936Z" fill="#FF8F1F"/>
<defs>
<linearGradient id="paint0_linear_105:34" x1="55.925" y1="1" x2="55.925" y2="112.997" gradientUnits="userSpaceOnUse">
<stop stop-color="#FF8F1F"/>
<stop offset="1" stop-color="#FFD469"/>
</linearGradient>
</defs>
</svg>
